<svg width="90" height="91" viewBox="0 0 90 91" fill="none" xmlns="http://www.w3.org/2000/svg">
<path d="M45.4 63.4C53 63.4 59.48 59 62.52 52.6H70.84C67.32 63.32 57.32 71 45.4 71C32.04 71 20.92 61.16 19.08 48.28C18.84 47 18.76 45.72 18.76 44.36C18.76 43.08 18.84 41.88 19 40.6C20.84 27.64 31.96 17.72 45.4 17.72C57.56 17.72 67.88 25.8 71.08 36.92H62.92C60.04 30.12 53.32 25.4 45.4 25.4C36.28 25.4 28.52 31.96 26.84 40.6C26.6 41.8 26.44 43.08 26.44 44.36C26.44 45.72 26.6 47 26.84 48.28C28.68 56.92 36.28 63.4 45.4 63.4Z" fill="#0271A2"/>
<circle cx="45" cy="45" r="41.5" stroke="#0271A2" stroke-width="7"/>
</svg>