<svg width="73" height="73" viewBox="0 0 73 73" fill="none" xmlns="http://www.w3.org/2000/svg">
<path d="M36.4999 6.57671C46.2459 6.57671 47.4002 6.6138 51.249 6.7894C54.8077 6.95182 56.7403 7.54644 58.0267 8.04615C59.7302 8.70829 60.9463 9.49937 62.2235 10.7765C63.5006 12.0537 64.2917 13.2698 64.9537 14.9733C65.4536 16.2597 66.0482 18.1923 66.2106 21.7509C66.3862 25.5998 66.4233 26.7541 66.4233 36.5001C66.4233 46.246 66.3862 47.4004 66.2106 51.2491C66.0482 54.8078 65.4536 56.7405 64.9537 58.0268C64.2917 59.7304 63.5006 60.9464 62.2235 62.2236C60.9463 63.5008 59.7302 64.2919 58.0267 64.9538C56.7403 65.4537 54.8077 66.0483 51.249 66.2107C47.4008 66.3863 46.2465 66.4234 36.4999 66.4234C26.7534 66.4234 25.5991 66.3863 21.7509 66.2107C18.1922 66.0483 16.2595 65.4537 14.9733 64.9538C13.2696 64.2919 12.0536 63.5008 10.7764 62.2236C9.49923 60.9464 8.70814 59.7304 8.04615 58.0268C7.54629 56.7405 6.95168 54.8078 6.78926 51.2493C6.61366 47.4004 6.57657 46.246 6.57657 36.5001C6.57657 26.7541 6.61366 25.5998 6.78926 21.751C6.95168 18.1923 7.54629 16.2597 8.04615 14.9733C8.70814 13.2698 9.49923 12.0537 10.7764 10.7765C12.0536 9.49937 13.2696 8.70829 14.9733 8.04615C16.2595 7.54644 18.1922 6.95182 21.7507 6.7894C25.5996 6.6138 26.754 6.57671 36.4999 6.57671ZM36.4999 0C26.5871 0 25.3442 0.0420172 21.4511 0.219649C17.566 0.39699 14.9128 1.01392 12.591 1.91628C10.1908 2.84906 8.15525 4.09711 6.12611 6.12626C4.09697 8.1554 2.84891 10.1909 1.91613 12.5911C1.01377 14.9129 0.396845 17.5661 0.219504 21.4512C0.0418723 25.3442 0 26.5872 0 36.5001C0 46.413 0.0418723 47.6559 0.219504 51.5489C0.396845 55.434 1.01377 58.0872 1.91613 60.409C2.84891 62.8091 4.09697 64.8447 6.12611 66.8739C8.15525 68.903 10.1908 70.1511 12.591 71.0839C14.9128 71.9862 17.566 72.6032 21.4511 72.7805C25.3442 72.9581 26.5871 73 36.4999 73C46.4128 73 47.6558 72.9581 51.5488 72.7805C55.4339 72.6032 58.0871 71.9862 60.4089 71.0839C62.8091 70.1511 64.8446 68.903 66.8737 66.8739C68.9029 64.8447 70.1509 62.8092 71.0837 60.409C71.9861 58.0872 72.603 55.434 72.7804 51.5489C72.958 47.6559 73 46.413 73 36.5001C73 26.5872 72.958 25.3442 72.7804 21.4512C72.603 17.5661 71.9861 14.9129 71.0837 12.5911C70.1509 10.1909 68.9029 8.1554 66.8737 6.12626C64.8446 4.09711 62.8091 2.84906 60.4089 1.91628C58.0871 1.01392 55.4339 0.39699 51.5488 0.219649C47.6558 0.0420172 46.4128 0 36.4999 0ZM36.4999 17.7568C26.1483 17.7568 17.7566 26.1485 17.7566 36.5001C17.7566 46.8517 26.1483 55.2434 36.4999 55.2434C46.8515 55.2434 55.2432 46.8517 55.2432 36.5001C55.2432 26.1485 46.8515 17.7568 36.4999 17.7568ZM36.4999 48.6668C29.7805 48.6668 24.3332 43.2195 24.3332 36.5001C24.3332 29.7807 29.7805 24.3333 36.4999 24.3333C43.2194 24.3333 48.6667 29.7807 48.6667 36.5001C48.6667 43.2195 43.2194 48.6668 36.4999 48.6668ZM60.3637 17.0163C60.3637 19.4353 58.4028 21.3963 55.9837 21.3963C53.5647 21.3963 51.6037 19.4353 51.6037 17.0163C51.6037 14.5972 53.5647 12.6363 55.9837 12.6363C58.4028 12.6363 60.3637 14.5972 60.3637 17.0163Z" fill="white"/>
</svg>