<svg width="71" height="59" viewBox="0 0 71 59" fill="none" xmlns="http://www.w3.org/2000/svg">
<path d="M66.1503 0.241097L1.84874 24.9905C1.81048 25.0052 1.77339 25.0227 1.7378 25.0429C1.21637 25.3367 -2.42251 27.5506 2.70853 29.5354L2.76123 29.5547L18.0725 34.4748C18.1893 34.5126 18.313 34.5245 18.435 34.5097C18.5569 34.4949 18.6741 34.4538 18.7784 34.3893L56.755 10.822C56.8481 10.7642 56.9518 10.7253 57.0601 10.7075C57.5884 10.6206 59.1097 10.4578 58.1473 11.673C57.0587 13.0524 31.1192 36.1728 28.2403 38.737C28.0743 38.8852 27.9716 39.091 27.9532 39.3122L26.6968 54.209C26.6967 54.3607 26.732 54.5104 26.8002 54.6461C26.8683 54.7819 26.9673 54.9 27.0893 54.9911C27.2624 55.0995 27.466 55.1498 27.67 55.1344C27.874 55.119 28.0676 55.0387 28.2223 54.9056L37.3195 46.8185C37.4632 46.6908 37.6465 46.6158 37.839 46.606C38.0314 46.5963 38.2215 46.6523 38.3776 46.7647L54.2491 58.227L54.3004 58.2615C54.6845 58.4973 58.8338 60.8988 60.0319 55.5359L70.9874 3.72116C71.0026 3.55702 71.151 1.75285 69.8544 0.686623C68.4926 -0.427881 66.565 0.134888 66.2752 0.195579C66.2324 0.207416 66.1907 0.222638 66.1503 0.241097Z" fill="white"/>
</svg>