<svg width="75" height="81" viewBox="0 0 75 81" fill="none" xmlns="http://www.w3.org/2000/svg">
<path d="M33.3638 0.179039C32.5431 0.242168 30.8702 0.526249 29.6076 0.778766C19.286 2.86203 10.2585 9.14338 4.5453 18.234C2.93551 20.8223 1.13632 24.8625 0.315646 27.7665L0 28.9028L2.33578 28.8397L2.90394 27.1352C3.21959 26.1883 3.62993 25.0519 3.81931 24.5785C4.35591 23.2843 5.99727 20.1279 6.81795 18.8968L7.54394 17.7921L9.31155 18.4234C11.3948 19.1494 14.9616 20.0963 17.7077 20.6329C18.8125 20.8538 19.7594 21.0432 19.791 21.0748C19.8226 21.1064 19.6963 21.927 19.4753 22.9055C19.2544 23.8525 18.9703 25.3991 18.8441 26.2829C18.7178 27.1983 18.56 28.1453 18.4968 28.3978L18.4337 28.9028H20.7064L20.9904 27.0721C21.2745 25.2413 22.0321 21.4851 22.1583 21.3589C22.1899 21.3273 22.9159 21.3904 23.7681 21.5167C27.8715 22.0533 31.4383 22.2742 37.0568 22.2742C42.8016 22.2742 45.6424 22.148 49.9667 21.5798C51.1978 21.4536 52.2078 21.3273 52.2394 21.3589C52.3972 21.4851 53.1232 25.0835 53.5651 28.2084L53.6598 28.8712H55.9956L55.9009 28.4293C55.8693 28.2084 55.7431 27.4508 55.6484 26.7564C55.5537 26.062 55.2696 24.5153 55.0171 23.2843C54.7646 22.0533 54.5752 21.0432 54.6067 21.0117C54.6383 20.9801 55.5852 20.7907 56.6584 20.5382C59.4992 19.97 63.0345 19.0231 65.0862 18.3287L66.8222 17.6974L67.706 19.0547C69.0317 21.0748 70.61 24.3891 71.3675 26.7249L72.0619 28.8397H74.4293L74.1136 27.7034C71.7463 19.2756 65.9384 11.416 58.4576 6.39726C51.1662 1.53632 42.3281 -0.673205 33.3638 0.179039ZM38.8876 2.54638C43.8116 3.58801 48.2622 8.98556 51.1662 17.5711L51.6712 19.0547L51.1978 19.1494C48.7357 19.5913 41.9178 20.0332 37.3409 20.0332C32.6693 20.0332 25.8514 19.6228 23.3578 19.1494L22.8843 19.0547L23.1368 18.1708C25.0307 12.2367 28.2819 6.87073 31.4699 4.50339C34.0266 2.64108 36.3624 2.04135 38.8876 2.54638ZM28.1556 4.44026C25.3779 7.31263 22.979 11.5107 21.243 16.5926C20.8642 17.6658 20.517 18.5812 20.4854 18.6443C20.3907 18.7706 16.5083 18.013 14.1094 17.3817C11.8052 16.782 9.24842 15.8982 9.18529 15.7088C9.12216 15.4563 12.4364 12.0473 14.0778 10.6585C17.7709 7.59671 22.1583 5.22937 26.8615 3.7774C29.4813 3.01985 29.5444 3.05142 28.1556 4.44026ZM48.6095 4.12461C52.6497 5.45032 57.1319 7.94393 60.4146 10.69C62.0875 12.0789 65.4018 15.4879 65.3071 15.7404C65.1493 16.2454 54.3542 19.0231 54.007 18.6759C53.9439 18.6128 53.7545 18.0762 53.5651 17.4764C51.7659 11.8579 48.9882 7.02855 45.8633 3.96679L45.0742 3.20924L45.7371 3.30393C46.1159 3.36706 47.41 3.74584 48.6095 4.12461Z" fill="white"/>
<path d="M0.315646 53.2619C1.98857 59.1961 5.49224 65.1302 10.0691 69.6755C13.3203 72.9267 16.2242 75.0099 20.3907 77.0616C25.5042 79.5868 30.1757 80.7547 35.9836 80.9756C45.7371 81.3228 55.1118 77.9454 62.6873 71.3169C67.927 66.74 72.2829 59.8589 74.1452 53.2304L74.4608 52.1256H72.0935L71.4306 54.1773C70.6731 56.5131 69.0633 59.9221 67.7692 61.9106L66.8853 63.2363L64.6758 62.4788C62.2454 61.6581 59.0573 60.8374 56.4059 60.3324C55.459 60.1746 54.6699 59.9852 54.6383 59.9536C54.6067 59.9221 54.7645 58.912 55.0486 57.681C55.3011 56.45 55.5852 54.8717 55.6799 54.2089C55.7746 53.5145 55.8693 52.7885 55.9324 52.5359L56.0271 52.1256H54.8592C54.1964 52.1256 53.6914 52.1887 53.6914 52.2519C53.6914 52.9147 52.4288 59.5117 52.271 59.638C52.2394 59.6695 51.5765 59.6064 50.7874 59.5117C46.7787 58.9436 43.1803 58.7542 37.2146 58.7542C31.2805 58.7542 27.619 58.9436 23.6419 59.5117C22.8528 59.6064 22.1899 59.6695 22.1583 59.638C22.0321 59.5433 21.3692 56.2921 21.0536 54.2404L20.7064 52.1256H18.4337L18.5284 52.7885C18.8125 54.7455 19.2544 57.3338 19.5385 58.5648C19.7279 59.3223 19.8226 59.9536 19.791 59.9852C19.7594 60.0168 18.9703 60.2061 18.0234 60.364C15.5613 60.8374 11.3001 61.9422 9.31155 62.6682L7.54394 63.2995L6.81795 62.1947C5.99727 60.9637 4.32435 57.8072 3.81931 56.5131C3.62993 56.0396 3.21959 54.8717 2.90394 53.9564L2.33578 52.2519L0 52.1887L0.315646 53.2619ZM43.6854 61.1531C46.1474 61.3109 50.2192 61.6897 51.1662 61.8791L51.6397 61.9738L51.1346 63.4573C48.3254 71.6641 44.2535 76.9354 39.4873 78.3242C38.2878 78.6714 36.2361 78.6714 35.0051 78.3242C30.081 76.8722 25.883 71.3169 22.979 62.4472C22.8212 61.9738 22.8528 61.9738 23.2947 61.8791C24.21 61.7212 28.4397 61.3109 30.4598 61.1846C33.49 60.9637 40.8761 60.9637 43.6854 61.1531ZM21.2114 64.3095C22.979 69.423 25.3779 73.6842 28.1556 76.5566C28.85 77.2826 29.2288 77.7561 29.1025 77.7561C28.9763 77.7561 28.2187 77.5667 27.4296 77.3457C22.7265 76.02 17.8656 73.4633 14.1094 70.3068C12.4364 68.918 9.12216 65.509 9.21686 65.2565C9.27999 65.0987 11.6789 64.278 13.8253 63.6782C15.4982 63.2048 20.2013 62.2263 20.4223 62.2894C20.4538 62.2894 20.8326 63.2363 21.2114 64.3095ZM56.9109 62.7944C59.9096 63.3942 64.8968 64.8146 65.2756 65.1618C65.4334 65.3196 63.9183 67.0872 62.1507 68.7601C60.604 70.2121 57.8894 72.2954 56.0587 73.4317C53.3757 75.1046 47.915 77.3457 45.8002 77.6614L45.1058 77.7561L46.4315 76.3672C49.2407 73.4317 51.4187 69.6124 53.1863 64.562C53.5651 63.4889 53.9123 62.4788 53.9439 62.3841C54.0386 62.2263 54.0386 62.2263 56.9109 62.7944Z" fill="white"/>
<path d="M19.4323 33.9737H22.8839L22.5029 34.803L17.5271 45.8751L16.2496 48.7664H15.5548L11.991 40.7873L8.38251 48.7664H7.71011L1.47921 34.803L1.1206 33.9737H4.54983L4.70673 34.3099L8.09113 41.7959L11.4531 34.3099L11.61 33.9737H12.3721L12.529 34.3099L13.6048 36.7081L15.9134 41.7959L19.2754 34.3099L19.4323 33.9737Z" fill="white"/>
<path d="M44.564 33.9737H48.0157L47.6347 34.803L42.6589 45.8751L41.3814 48.7664H40.6865L37.1228 40.7873L33.5143 48.7664H32.8419L26.611 34.803L26.2524 33.9737H29.6816L29.8385 34.3099L33.2229 41.7959L36.5849 34.3099L36.7418 33.9737H37.5039L37.6608 34.3099L38.7366 36.7081L41.0452 41.7959L44.4072 34.3099L44.564 33.9737Z" fill="white"/>
<path d="M69.6958 33.9737H73.1475L72.7665 34.803L67.7907 45.8751L66.5131 48.7664H65.8183L62.2546 40.7873L58.6461 48.7664H57.9737L51.7428 34.803L51.3842 33.9737H54.8134L54.9703 34.3099L58.3547 41.7959L61.7167 34.3099L61.8736 33.9737H62.6356L62.7925 34.3099L63.8684 36.7081L66.1769 41.7959L69.5389 34.3099L69.6958 33.9737Z" fill="white"/>
</svg>